<svg
  xmlns="http://www.w3.org/2000/svg"
  width="24"
  height="24"
  viewBox="0 0 24 24"
  fill="none"
  stroke="currentColor"
  stroke-width="2"
  stroke-linecap="round"
  stroke-linejoin="round"
>
  <path d="M15 5.25c0-.708.542-1.25 1.25-1.25h5.417" />
  <path d="M17.083 4v6.667" />
  <path d="m2 12 9-9" />
  <path d="M20.833 10.667c-.708 0-1.25-.542-1.25-1.25V4" />
  <path d="M6.5 11a3.5 3.5 0 1 0 0-7 3.5 3.5 0 0 0 0 7" />
  <path d="M6.6 21c4.5 0 6.3-5 10.8-5 .955 0 1.87.263 2.546.732.675.47 1.054 1.105 1.054 1.768s-.38 1.299-1.054 1.768c-.676.469-1.591.732-2.546.732-4.5 0-6.3-5-10.8-5-.955 0-1.87.263-2.546.732C3.38 17.202 3 17.837 3 18.5s.38 1.299 1.054 1.768C4.73 20.737 5.645 21 6.6 21" />
</svg>
